<svg width="48" height="45" viewBox="0 0 48 45" fill="none" xmlns="http://www.w3.org/2000/svg">
<path d="M11.84 0.183594H13.4659C15.7255 0.237029 17.8858 0.725577 19.8476 1.56527C21.8858 2.4355 23.7255 3.69504 25.2675 5.23703C28.3896 8.35917 30.3285 12.6798 30.3285 17.4508C30.3285 19.7866 29.8629 22.0157 29.0232 24.0538C28.1453 26.1683 26.8629 28.0691 25.2751 29.6645C24.2598 30.6798 23.1072 31.5729 21.8629 32.3134C20.6339 33.0386 19.3133 33.6187 17.9163 34.0309L17.6949 34.0996V29.2523L17.8095 29.2065C18.6034 28.8859 19.3591 28.4889 20.0614 28.0233C20.7713 27.55 21.4354 27.0157 22.0385 26.4126C23.2064 25.2447 24.1453 23.8477 24.7866 22.2981C25.4049 20.8095 25.7484 19.1683 25.7484 17.4508C25.7484 15.7332 25.4049 14.0996 24.7866 12.6034C24.1453 11.0538 23.2064 9.65687 22.0385 8.48894C20.9163 7.3668 19.5881 6.45077 18.1072 5.81718C16.6797 5.19886 15.1224 4.84008 13.4812 4.78665H12.985H11.6797V0.183594H11.8553H11.84Z" fill="#B8975D"/>
<path d="M16.1833 12.9544V44.8628H11.5879V12.7788H16.1833V12.9544Z" fill="#B8975D"/>
<path d="M47.2821 15.5194C45.5951 15.5194 43.9844 15.8553 42.5264 16.4583C41.0073 17.0919 39.6333 18.0156 38.4882 19.1606C36.2363 21.4125 34.847 24.5194 34.847 27.9621C34.847 29.6491 35.1829 31.2522 35.7859 32.7179C36.4195 34.2369 37.3432 35.611 38.4882 36.756C39.6333 37.9011 41.0073 38.8247 42.5264 39.4583C43.9921 40.0614 45.5951 40.3972 47.2821 40.3972H47.4577V45.0003H47.2821C44.9768 45.0003 42.7707 44.5423 40.763 43.7102C38.6791 42.8476 36.8012 41.5804 35.2287 40.0079C33.6562 38.4354 32.389 36.5575 31.5264 34.4736C30.6943 32.4659 30.2363 30.2675 30.2363 27.9545C30.2363 25.6415 30.6943 23.443 31.5264 21.4354C32.389 19.3514 33.6562 17.4736 35.2287 15.9011C36.8012 14.3285 38.6791 13.0614 40.763 12.1988C42.7707 11.3667 44.9692 10.9087 47.2821 10.9087H47.4577V15.5117H47.2821V15.5194Z" fill="#B8975D"/>
<path d="M47.3383 15.5347H14.6895V10.9316H47.5215V15.5347H47.3383Z" fill="#B8975D"/>
<path d="M0.0152704 24.7099C0.0152704 22.8473 0.389313 21.0687 1.06107 19.4427C1.76336 17.7557 2.79389 16.229 4.06106 14.9618C5.33587 13.687 6.85496 12.6565 8.54199 11.9618C10.1679 11.2901 11.9466 10.916 13.8092 10.916H20.8473V15.4885L13.8092 15.5114C12.5725 15.5114 11.3817 15.7633 10.3053 16.2137C9.18321 16.6794 8.16794 17.3664 7.31298 18.2214C6.46565 19.0687 5.77862 20.084 5.30534 21.2137C4.85496 22.2977 4.60305 23.4809 4.60305 24.7175V24.8931H0V24.7175L0.0152704 24.7099Z" fill="#B8975D"/>
<path d="M37.4121 20.5276C37.7709 20.039 38.1678 19.581 38.5953 19.1536C39.7327 18.0161 41.0991 17.0925 42.6106 16.4665C44.0686 15.8635 45.664 15.5276 47.3358 15.5276H47.5114V10.9551H47.3358C45.0457 10.9551 42.8549 11.4131 40.8625 12.2375C39.6335 12.749 38.4732 13.3978 37.4121 14.1688V20.52V20.5276Z" fill="#E9C585"/>
<path fill-rule="evenodd" clip-rule="evenodd" d="M31.9764 15.5344H35.61C35.61 15.5344 40.3123 11.3359 47.3046 10.939H32.0832L31.9688 15.5344H31.9764Z" fill="#725723"/>
<path d="M11.8533 0.213867H13.4716C15.7235 0.267302 17.8609 0.755854 19.8151 1.58792C20.3495 1.81692 20.8762 2.07647 21.38 2.35127V7.90853C20.3953 7.04593 19.2808 6.33601 18.067 5.80929C16.6548 5.1986 15.0976 4.83219 13.4716 4.78639H12.9754H11.6777V0.213867H11.8533Z" fill="#E9C585"/>
<path d="M6.82355 18.7766C6.1976 19.5018 5.68615 20.3339 5.3121 21.227C4.86172 22.3033 4.61744 23.4789 4.61744 24.7079V24.8835H0.0449219V24.7079C0.0449219 22.8606 0.418968 21.0896 1.08309 19.4789C1.57164 18.2957 2.22813 17.1965 3.01439 16.2041C4.12126 16.8682 5.564 17.8759 6.81591 18.7766" fill="#E9C585"/>
<path d="M16.1604 34.2886H11.5879V44.8687H16.1604V34.2886Z" fill="#E9C585"/>
<path d="M17.5732 15.5188C17.1152 15.5188 16.6496 15.5188 16.1839 15.5188V23.9997H11.6114V15.8242C11.2145 15.931 10.8251 16.0608 10.4511 16.2135C10.3137 16.2745 10.1687 16.3356 10.0312 16.3967C11.7488 15.5494 13.5351 15.4883 13.5351 15.4883H17.5656V15.5112L17.5732 15.5188Z" fill="#725723"/>
<path d="M5.15379 13.8321C6.18432 12.9924 7.34463 12.2901 8.5889 11.771C10.2149 11.0992 11.9935 10.7252 13.8561 10.7252C17.0698 10.7252 20.5889 10.7099 23.7874 10.7099C23.8484 10.8015 23.9019 10.8931 23.9629 10.9924C20.5889 10.9924 16.8942 11.0076 13.5049 11.0076C11.6423 11.0076 9.8637 11.3817 8.23775 12.0534C7.13088 12.5115 6.09272 13.1145 5.15379 13.8321ZM8.00111 17.4427C7.77974 17.626 7.566 17.8244 7.35989 18.0229C7.18432 18.1985 7.00875 18.3817 6.84844 18.5802H6.86371C6.23776 19.3206 5.7263 20.145 5.35226 21.0458C4.90187 22.1221 4.65761 23.2977 4.65761 24.5267V24.7023H4.29883C4.3141 23.5115 4.55836 22.3664 4.99348 21.3206C5.36752 20.4198 5.87898 19.5954 6.50493 18.8702H6.48966C6.64997 18.6718 6.82554 18.4809 7.00111 18.3053C7.31409 17.9924 7.64233 17.7023 8.00111 17.4427ZM16.2225 15.626V44.6794H16.192H15.8637V15.626H16.2225ZM30.3065 15.542C30.3599 16.084 30.3752 16.7099 30.3752 17.2672C30.3752 19.6031 29.9095 21.8321 29.0698 23.8702C28.192 25.9847 26.9095 27.8855 25.3217 29.4809C24.7874 30.0153 24.2225 30.5115 23.6271 30.9695C24.0927 30.5878 24.5431 30.1908 24.9629 29.7634C26.5507 28.1756 27.8408 26.2672 28.711 24.1527C29.5507 22.1145 30.0164 19.8855 30.0164 17.5496C30.0164 16.9008 29.9858 16.1756 29.9171 15.542H30.2988H30.3065ZM39.5507 18.1374C39.2301 18.3969 38.9248 18.6718 38.6347 18.9618C38.2072 19.3893 37.8103 19.8473 37.4515 20.3359V20.1985C35.8408 22.2977 34.879 24.9237 34.879 27.771C34.879 29.458 35.2149 31.0611 35.8179 32.5267C36.4515 34.0458 37.3752 35.4198 38.5202 36.5649C39.6652 37.7099 41.0393 38.6336 42.5584 39.2672C44.024 39.8702 45.6271 40.2061 47.3141 40.2061H47.4897V44.9771H47.3065C47.2454 44.9771 47.1843 44.9771 47.1232 44.9771V40.4886H46.9553C45.2683 40.4886 43.6652 40.1527 42.1996 39.5496C40.6805 38.916 39.3065 37.9924 38.1614 36.8473C37.0164 35.7023 36.0927 34.3283 35.4591 32.8092C34.8561 31.3435 34.5202 29.7405 34.5202 28.0534C34.5202 25.2061 35.482 22.5725 37.0927 20.4809V20.6183C37.4515 20.1298 37.8484 19.6718 38.2759 19.2443C38.6729 18.8473 39.1004 18.4809 39.5431 18.1374H39.5507ZM11.879 0H13.5049C15.7645 0.0534351 17.9248 0.541986 19.8866 1.38168C21.9248 2.25191 23.7645 3.51145 25.3065 5.05343C26.9171 6.66412 28.2149 8.59542 29.0927 10.7481H46.6042C46.8408 10.7405 47.0774 10.7328 47.3141 10.7328H47.4897V10.7481H47.5431V15.3511H47.1843V11.0305H47.1309V11.0153H46.9553C46.7187 11.0153 46.482 11.0153 46.2454 11.0305H28.7339C27.8561 8.8855 26.566 6.9542 24.9477 5.33588C23.4057 3.79389 21.566 2.53435 19.5278 1.66412C17.5584 0.824428 15.4057 0.335877 13.1462 0.282442H11.6958V0H11.8713H11.879Z" fill="#F3D193"/>
</svg>
